<svg width="29" height="29" viewBox="0 0 29 29" fill="none" xmlns="http://www.w3.org/2000/svg">
<path d="M15.2228 28.5H1.57298C0.703993 28.5 0 27.7956 0 26.9269V1.57297C0 0.704098 0.704104 0 1.57298 0H26.9271C27.7958 0 28.5 0.704098 28.5 1.57297V26.9269C28.5 27.7957 27.7957 28.5 26.9271 28.5H19.6646V17.4632H23.3691L23.9238 13.162H19.6646V10.4159C19.6646 9.17064 20.0104 8.32201 21.7961 8.32201L24.0738 8.32101V4.47396C23.6799 4.42154 22.3278 4.30443 20.7549 4.30443C17.471 4.30443 15.2228 6.30891 15.2228 9.98997V13.162H11.5087V17.4632H15.2228V28.5V28.5Z" fill="white"/>
</svg>
