<svg width="29" height="29" viewBox="0 0 29 29" fill="none" xmlns="http://www.w3.org/2000/svg">
<path fill-rule="evenodd" clip-rule="evenodd" d="M14.2735 0C10.4034 0 9.91809 0.0164041 8.39818 0.0857535C6.88143 0.154933 5.84555 0.395845 4.93915 0.748135C4.00208 1.11225 3.20739 1.5995 2.41514 2.3917C1.62294 3.18396 1.13568 3.97865 0.771573 4.91571C0.419283 5.82211 0.17837 6.858 0.109191 8.37474C0.0398416 9.89466 0.0234375 10.3799 0.0234375 14.25C0.0234375 18.1201 0.0398416 18.6053 0.109191 20.1253C0.17837 21.642 0.419283 22.6779 0.771573 23.5843C1.13568 24.5214 1.62294 25.316 2.41514 26.1083C3.20739 26.9005 4.00208 27.3878 4.93915 27.7519C5.84555 28.1042 6.88143 28.3451 8.39818 28.4142C9.91809 28.4836 10.4034 28.5 14.2735 28.5C18.1435 28.5 18.6288 28.4836 20.1487 28.4142C21.6654 28.3451 22.7013 28.1042 23.6077 27.7519C24.5448 27.3878 25.3395 26.9005 26.1317 26.1083C26.9239 25.316 27.4112 24.5214 27.7754 23.5843C28.1276 22.6779 28.3685 21.642 28.4377 20.1253C28.507 18.6053 28.5234 18.1201 28.5234 14.25C28.5234 10.3799 28.507 9.89466 28.4377 8.37474C28.3685 6.858 28.1276 5.82211 27.7754 4.91571C27.4112 3.97865 26.9239 3.18396 26.1317 2.3917C25.3395 1.5995 24.5448 1.11225 23.6077 0.748135C22.7013 0.395845 21.6654 0.154933 20.1487 0.0857535C18.6288 0.0164041 18.1435 0 14.2735 0ZM14.2734 2.5675C18.0783 2.5675 18.529 2.58204 20.0316 2.6506C21.421 2.71395 22.1755 2.9461 22.6776 3.14125C23.3428 3.39975 23.8175 3.70854 24.3161 4.20722C24.8148 4.70585 25.1236 5.18055 25.3821 5.8457C25.5772 6.34783 25.8094 7.10236 25.8727 8.49172C25.9413 9.99432 25.9558 10.445 25.9558 14.25C25.9558 18.0548 25.9413 18.5056 25.8727 20.0082C25.8094 21.3975 25.5772 22.1521 25.3821 22.6542C25.1236 23.3193 24.8148 23.794 24.3161 24.2927C23.8175 24.7913 23.3428 25.1001 22.6776 25.3586C22.1755 25.5538 21.421 25.7859 20.0316 25.8493C18.5292 25.9178 18.0786 25.9324 14.2734 25.9324C10.4682 25.9324 10.0176 25.9178 8.51516 25.8493C7.1258 25.7859 6.37127 25.5538 5.86914 25.3586C5.20398 25.1001 4.72929 24.7913 4.23066 24.2927C3.73204 23.794 3.42319 23.3193 3.16469 22.6542C2.96953 22.1521 2.73739 21.3975 2.67404 20.0082C2.60548 18.5056 2.59094 18.0548 2.59094 14.25C2.59094 10.445 2.60548 9.99432 2.67404 8.49172C2.73739 7.10236 2.96953 6.34783 3.16469 5.8457C3.42319 5.18055 3.73198 4.70585 4.23066 4.20722C4.72929 3.70854 5.20398 3.39975 5.86914 3.14125C6.37127 2.9461 7.1258 2.71395 8.51516 2.6506C10.0178 2.58204 10.4685 2.5675 14.2734 2.5675ZM6.95593 14.2501C6.95593 10.2087 10.2321 6.9325 14.2735 6.9325C18.3149 6.9325 21.5911 10.2087 21.5911 14.2501C21.5911 18.2915 18.3149 21.5676 14.2735 21.5676C10.2321 21.5676 6.95593 18.2915 6.95593 14.2501ZM14.2735 19C11.6501 19 9.52344 16.8734 9.52344 14.25C9.52344 11.6266 11.6501 9.5 14.2735 9.5C16.8968 9.5 19.0234 11.6266 19.0234 14.25C19.0234 16.8734 16.8968 19 14.2735 19ZM21.8801 8.35323C22.8245 8.35323 23.5902 7.58768 23.5902 6.64326C23.5902 5.69884 22.8245 4.93323 21.8801 4.93323C20.9358 4.93323 20.1702 5.69884 20.1702 6.64326C20.1702 7.58768 20.9358 8.35323 21.8801 8.35323Z" fill="white"/>
</svg>
