<svg width="33" height="29" viewBox="0 0 33 29" fill="none" xmlns="http://www.w3.org/2000/svg">
<path fill-rule="evenodd" clip-rule="evenodd" d="M4.27405 6.71757H4.22881C1.96664 6.71757 0.5 5.23755 0.5 3.36152C0.5 1.449 2.01 0 4.31741 0C6.62293 0 8.04056 1.44535 8.0858 3.35605C8.0858 5.23208 6.62293 6.71757 4.27405 6.71757ZM32.5621 28.5H25.4759V18.4811C25.4759 15.8587 24.3674 14.0684 21.9299 14.0684C20.0655 14.0684 19.0287 15.2765 18.5461 16.4409C18.3868 16.8088 18.3896 17.3041 18.3926 17.8146C18.393 17.8839 18.3934 17.9535 18.3934 18.0231V28.5H11.3732C11.3732 28.5 11.4636 10.7525 11.3732 9.1393H18.3934V12.1778C18.8081 10.8493 21.0515 8.95316 24.6313 8.95316C29.0727 8.95316 32.5621 11.738 32.5621 17.7347V28.5ZM7.55783 9.13924H1.30859V28.4999H7.55783V9.13924Z" fill="white"/>
</svg>
