<svg width="40" height="40" viewBox="0 0 40 40" fill="none" xmlns="http://www.w3.org/2000/svg">
<path d="M0.0908163 19.9249C0.0728545 23.8657 1.22387 27.7233 3.39831 31.0099C5.57276 34.2965 8.67296 36.8645 12.3069 38.3892C15.9408 39.9138 19.9453 40.3267 23.8138 39.5755C27.6824 38.8243 31.2413 36.9428 34.0405 34.169C36.8398 31.3951 38.7536 27.8535 39.5401 23.992C40.3265 20.1304 39.9502 16.1224 38.4587 12.4747C36.9672 8.82702 34.4276 5.70354 31.1609 3.49923C27.8943 1.29492 24.0473 0.108783 20.1065 0.0908214C17.49 0.0788952 14.8967 0.582461 12.4747 1.57276C10.0527 2.56306 7.84953 4.02071 5.9909 5.86247C4.13227 7.70424 2.6546 9.89405 1.64226 12.3069C0.629925 14.7197 0.102742 17.3083 0.0908163 19.9249ZM28.9638 24.0416L11.0314 23.9598L20.052 12.0458L28.9638 24.0416Z" fill="#E05C11"/>
</svg>
