<svg width="40" height="40" viewBox="0 0 40 40" fill="none" xmlns="http://www.w3.org/2000/svg">
<path d="M39.9404 20.1066C39.9584 16.1658 38.8074 12.3082 36.6329 9.02156C34.4585 5.73495 31.3583 3.16694 27.7244 1.64228C24.0904 0.117617 20.086 -0.295223 16.2174 0.455967C12.3489 1.20716 8.78996 3.08864 5.99071 5.86249C3.19146 8.63633 1.27761 12.178 0.491189 16.0395C-0.295234 19.9011 0.0810864 23.9091 1.57256 27.5568C3.06404 31.2044 5.60368 34.3279 8.87033 36.5322C12.137 38.7365 15.9839 39.9227 19.9247 39.9406C22.5413 39.9526 25.1346 39.449 27.5566 38.4587C29.9785 37.4684 32.1817 36.0108 34.0403 34.169C35.899 32.3272 37.3766 30.1374 38.389 27.7246C39.4013 25.3117 39.9285 22.7231 39.9404 20.1066ZM11.0675 15.9899L28.9999 16.0716L19.9792 27.9857L11.0675 15.9899Z" fill="#E05C11"/>
</svg>
