<svg width="24" height="23" viewBox="0 0 24 23" fill="none" xmlns="http://www.w3.org/2000/svg">
<path fill-rule="evenodd" clip-rule="evenodd" d="M21.1512 15.5052L17.9362 15.1382C17.1641 15.0496 16.4046 15.3154 15.8604 15.8597L13.5314 18.1886C9.9494 16.3659 7.0129 13.4421 5.19024 9.84741L7.53185 7.5058C8.07611 6.96154 8.34192 6.2021 8.25332 5.43L7.88625 2.24035C7.73436 0.961958 6.65849 0 5.36744 0H3.17772C1.74744 0 0.55765 1.18979 0.646251 2.62007C1.31709 13.4294 9.96206 22.0618 20.7588 22.7326C22.1891 22.8212 23.3788 21.6314 23.3788 20.2011V18.0114C23.3915 16.733 22.4295 15.6571 21.1512 15.5052Z" fill="white"/>
</svg>
