<svg width="19" height="26" viewBox="0 0 19 26" fill="none" xmlns="http://www.w3.org/2000/svg">
<path fill-rule="evenodd" clip-rule="evenodd" d="M0.328613 9.39164C0.328613 4.49324 4.29036 0.531494 9.18876 0.531494C14.0871 0.531494 18.0489 4.49324 18.0489 9.39164C18.0489 14.6697 12.4544 21.9477 10.1634 24.7197C9.65708 25.3272 8.73309 25.3272 8.2268 24.7197C5.92316 21.9477 0.328613 14.6697 0.328613 9.39164ZM6.02438 9.39161C6.02438 11.1383 7.44201 12.5559 9.18872 12.5559C10.9354 12.5559 12.3531 11.1383 12.3531 9.39161C12.3531 7.6449 10.9354 6.22727 9.18872 6.22727C7.44201 6.22727 6.02438 7.6449 6.02438 9.39161Z" fill="white"/>
</svg>
