<svg width="41" height="29" viewBox="0 0 41 29" fill="none" xmlns="http://www.w3.org/2000/svg">
<path fill-rule="evenodd" clip-rule="evenodd" d="M38.0603 2.12607C39.2429 3.35562 39.6289 6.14775 39.6289 6.14775C39.6289 6.14775 40.0235 9.42739 40.0235 12.7058V15.7803C40.0235 19.0599 39.6289 22.3383 39.6289 22.3383C39.6289 22.3383 39.2429 25.1304 38.0603 26.36C36.7082 27.8145 35.209 27.9648 34.3616 28.0497C34.2684 28.0591 34.1831 28.0676 34.1067 28.077C28.5846 28.4873 20.2928 28.5 20.2928 28.5C20.2928 28.5 10.0328 28.4037 6.87585 28.0922C6.72627 28.0635 6.54496 28.0412 6.33963 28.0159C5.33964 27.8927 3.77012 27.6994 2.52399 26.36C1.34138 25.1304 0.956627 22.3383 0.956627 22.3383C0.956627 22.3383 0.562012 19.0599 0.562012 15.7803V12.7058C0.562012 9.42739 0.956627 6.14775 0.956627 6.14775C0.956627 6.14775 1.34138 3.35562 2.52399 2.12607C3.87907 0.669495 5.3797 0.520836 6.22717 0.436882C6.31905 0.427779 6.40326 0.419438 6.47877 0.410272C12.0009 0 20.2841 0 20.2841 0H20.3014C20.3014 0 28.5846 0 34.1067 0.410272C34.1822 0.419451 34.2665 0.427804 34.3585 0.436923C35.2053 0.520885 36.7065 0.669732 38.0603 2.12607ZM16.2173 8.12057L16.2186 19.5056L26.8793 13.8327L16.2173 8.12057Z" fill="white"/>
</svg>
